# xmcd
#
# Track frame offsets: 
#        150
#        29265
#        50999
#        82959
#        104502
#        137244
#        159964
#        184960
#        206688
#        251613
#        275664
#        291920
#        308050
#
# Disc length: 4470 seconds
#
# Revision: 0
# Processed by: cddbd v1.5.2PL0 Copyright (c) Steve Scherf et al.
# Submitted via: ExactAudioCopy v1.3
#
DISCID=c311740d
DTITLE=Imperial Crowns - 25 Live [Disk 1]
DYEAR=2018
DGENRE=Blues Rock
TTITLE0=Altar Of Love
TTITLE1=Big Boy
TTITLE2=Big Chief
TTITLE3=Big Love Generator
TTITLE4=Blues Au Go Go
TTITLE5=Blues Look Whatcha Done
TTITLE6=Comin' Fuh Ya
TTITLE7=Diamond Cane
TTITLE8=Drop Down Mama
TTITLE9=Hunt You Down
TTITLE10=I Gotta Right
TTITLE11=Mr. Jinx
TTITLE12=Liberate
EXTD=
EXTT0=
EXTT1=
EXTT2=
EXTT3=
EXTT4=
EXTT5=
EXTT6=
EXTT7=
EXTT8=
EXTT9=
EXTT10=
EXTT11=
EXTT12=
PLAYORDER=
